# xmcd
#
# Track frame offsets: 
#        150
#        17449
#        32539
#        48079
#        68869
#        90019
#        104888
#        121847
#        145937
#        163916
#        182902
#        206540
#        231551
#
# Disc length: 3373 seconds
#
# Revision: 6
# Processed by: cddbd v1.5.1PL2 Copyright (c) Steve Scherf et al.
# Submitted via: ExactAudioCopy v0.95b3
#
DISCID=ac0d2b0d
DTITLE=Abi Wallenstein - Step in Time
DYEAR=2003
DGENRE=blues
TTITLE0=Off the Hook
TTITLE1=Ramona
TTITLE2=Written by a Friend of mine
TTITLE3=Leaving to stay
TTITLE4=Gimme more
TTITLE5=Destination Mississippi
TTITLE6=Titanic
TTITLE7=Rockin' Shoes
TTITLE8=Taxman
TTITLE9=Thing called Love
TTITLE10=Death Letter Blues
TTITLE11=Blue Bird
TTITLE12=Silver City
EXTD=
EXTT0=
EXTT1=
EXTT2=
EXTT3=
EXTT4=
EXTT5=
EXTT6=
EXTT7=
EXTT8=
EXTT9=
EXTT10=
EXTT11=
EXTT12=
PLAYORDER=
